<svg id="Layer_1" data-name="Layer 1" xmlns="http://www.w3.org/2000/svg" viewBox="0 0 197.72 23.70"><defs><style>.cls-1{fill:#1d1d1b}</style></defs><path class="cls-1" d="M21.15 78.75a8.51 8.51 0 0 1-3.44-.68A8.73 8.73 0 0 1 15 76.23a8.12 8.12 0 0 1-1.79-2.71 8.63 8.63 0 0 1-.64-3.29v-.06a8.63 8.63 0 0 1 .64-3.29A8.18 8.18 0 0 1 15 64.14a8.67 8.67 0 0 1 2.77-1.85 9 9 0 0 1 3.55-.68 7.79 7.79 0 0 1 7 3.64l-3.88 2.91a5.52 5.52 0 0 0-1.32-1.26 3.1 3.1 0 0 0-1.74-.47 3 3 0 0 0-1.3.29 3.06 3.06 0 0 0-1 .79 3.75 3.75 0 0 0-.67 1.16 4.1 4.1 0 0 0-.24 1.42v.06a4.32 4.32 0 0 0 .24 1.47 3.72 3.72 0 0 0 .67 1.18 3.05 3.05 0 0 0 2.37 1.07 3.23 3.23 0 0 0 1.77-.45 6.23 6.23 0 0 0 1.38-1.24L28.43 75a9.14 9.14 0 0 1-2.87 2.75 8.42 8.42 0 0 1-4.41 1zM29.67 61.94h5.76v3.31a6.76 6.76 0 0 1 1.91-2.67 4.65 4.65 0 0 1 3.28-.91v6.07h-.49a4.5 4.5 0 0 0-3.49 1.32 6 6 0 0 0-1.21 4.17v5.13h-5.76zM45.8 78.71a6.88 6.88 0 0 1-2.18-.33 4.86 4.86 0 0 1-1.73-1 4.7 4.7 0 0 1-1.15-1.59 5.17 5.17 0 0 1-.42-2.15v-.06a5.09 5.09 0 0 1 .47-2.24 4.54 4.54 0 0 1 1.3-1.62 5.6 5.6 0 0 1 2-1 10.16 10.16 0 0 1 2.64-.32 12.81 12.81 0 0 1 2.2.18 9.16 9.16 0 0 1 1.74.45v-.23a2.51 2.51 0 0 0-.8-2 3.7 3.7 0 0 0-2.47-.7 10.64 10.64 0 0 0-2.37.24 16.7 16.7 0 0 0-2.18.67l-1.18-4a18.05 18.05 0 0 1 3-.92 17.1 17.1 0 0 1 3.69-.35 11.85 11.85 0 0 1 3.75.52 6.33 6.33 0 0 1 2.5 1.49 5.2 5.2 0 0 1 1.35 2.2 10 10 0 0 1 .41 3v9.43h-5.71v-1.76a7 7 0 0 1-2 1.52 6.29 6.29 0 0 1-2.86.57zm2.06-3.61a3 3 0 0 0 2.08-.73 2.53 2.53 0 0 0 .8-2v-.76a6.34 6.34 0 0 0-2.27-.42 3.07 3.07 0 0 0-2 .55 1.8 1.8 0 0 0-.68 1.49v.06a1.6 1.6 0 0 0 .58 1.32 2.22 2.22 0 0 0 1.5.5zM59.51 66.55H57.6V62h1.91v-.33a5.78 5.78 0 0 1 1.4-4.25 4.42 4.42 0 0 1 1.79-1.09 8.26 8.26 0 0 1 2.51-.33 16.42 16.42 0 0 1 2.18.12 9.36 9.36 0 0 1 1.55.33v4.06a9.93 9.93 0 0 0-1-.24 6.37 6.37 0 0 0-1.14-.09q-1.64 0-1.64 1.55v.39h3.79v4.43h-3.67v11.8h-5.77zM76.49 78.68a6.06 6.06 0 0 1-4.07-1.24Q71 76.2 71 73.26v-6.7h-2v-4.62h2v-4.15h5.76v4.15h3.82v4.61h-3.84v5.6a1.7 1.7 0 0 0 .39 1.26 1.64 1.64 0 0 0 1.18.38 4 4 0 0 0 1.12-.16 6.5 6.5 0 0 0 1.06-.42v4.49a8.36 8.36 0 0 1-4 1zM89.93 78.75a9.76 9.76 0 0 1-3.55-.62 8.23 8.23 0 0 1-2.78-1.74 7.88 7.88 0 0 1-1.82-2.68 8.92 8.92 0 0 1-.65-3.47v-.06a9.17 9.17 0 0 1 .61-3.35 8.27 8.27 0 0 1 1.71-2.73 8 8 0 0 1 2.62-1.84 8.2 8.2 0 0 1 3.34-.67 8.55 8.55 0 0 1 3.67.73 7.31 7.31 0 0 1 2.56 2 8.22 8.22 0 0 1 1.52 2.85 11.61 11.61 0 0 1 .5 3.44v1.19h-11a3.38 3.38 0 0 0 1.26 2 3.81 3.81 0 0 0 2.29.67 4.48 4.48 0 0 0 1.91-.47 6.19 6.19 0 0 0 1.73-1.27L97 75.41a8.48 8.48 0 0 1-7.1 3.34zm2.37-9.95a3.6 3.6 0 0 0-.93-2.17 2.6 2.6 0 0 0-2-.8 2.42 2.42 0 0 0-1.88.8 4.26 4.26 0 0 0-1 2.17zM106 78.71a6.71 6.71 0 0 1-2.77-.59 7 7 0 0 1-2.32-1.68 8.11 8.11 0 0 1-1.59-2.67 10 10 0 0 1-.59-3.55v-.06a10.27 10.27 0 0 1 .59-3.59 8.42 8.42 0 0 1 1.58-2.7 6.76 6.76 0 0 1 5.1-2.29 5.81 5.81 0 0 1 3 .71 7.8 7.8 0 0 1 2 1.65v-7.73h5.76v22.14H111v-2.18a10.29 10.29 0 0 1-.91 1 6.06 6.06 0 0 1-1.08.8 5.68 5.68 0 0 1-1.33.56 6 6 0 0 1-1.68.18zm1.73-4.82a3.25 3.25 0 0 0 1.32-.27 3.15 3.15 0 0 0 1.08-.77 3.65 3.65 0 0 0 .71-1.18 4.22 4.22 0 0 0 .26-1.5v-.07a4.22 4.22 0 0 0-.26-1.5 3.65 3.65 0 0 0-.71-1.18 3.16 3.16 0 0 0-1.08-.77 3.24 3.24 0 0 0-1.32-.27 3.13 3.13 0 0 0-1.3.27 3.19 3.19 0 0 0-1.06.77 3.88 3.88 0 0 0-.73 1.18 4 4 0 0 0-.27 1.5v.06a4 4 0 0 0 .27 1.5 3.88 3.88 0 0 0 .73 1.18 3.18 3.18 0 0 0 1.06.77 3.14 3.14 0 0 0 1.34.28zM129.18 78.75a9.49 9.49 0 0 1-3.61-.67 8.9 8.9 0 0 1-2.85-1.84 8.27 8.27 0 0 1-2.55-6v-.06a8.2 8.2 0 0 1 .68-3.32 8.55 8.55 0 0 1 1.88-2.73 8.85 8.85 0 0 1 2.87-1.85 9.52 9.52 0 0 1 3.64-.68 9.41 9.41 0 0 1 3.62.68 9.23 9.23 0 0 1 2.87 1.83 8.14 8.14 0 0 1 1.88 2.7 8.27 8.27 0 0 1 .67 3.31v.06a8.2 8.2 0 0 1-.68 3.32 8.42 8.42 0 0 1-1.9 2.73 9 9 0 0 1-2.88 1.85 9.52 9.52 0 0 1-3.64.67zm.06-4.88a3.44 3.44 0 0 0 1.43-.29 3.29 3.29 0 0 0 1.09-.79 3.47 3.47 0 0 0 .7-1.16 4 4 0 0 0 .24-1.39v-.06a4 4 0 0 0-.26-1.43 3.51 3.51 0 0 0-.73-1.18 3.61 3.61 0 0 0-1.12-.8 3.31 3.31 0 0 0-1.41-.3 3.43 3.43 0 0 0-1.43.29 3.13 3.13 0 0 0-1.08.79 3.6 3.6 0 0 0-.67 1.15 4.11 4.11 0 0 0-.24 1.42v.06a3.89 3.89 0 0 0 .24 1.42 3.53 3.53 0 0 0 .73 1.16 3.66 3.66 0 0 0 1.11.8 3.21 3.21 0 0 0 1.4.3zM140.8 66.55h-1.91V62h1.91v-.33a5.78 5.78 0 0 1 1.4-4.25 4.42 4.42 0 0 1 1.8-1.09 8.26 8.26 0 0 1 2.5-.33 16.42 16.42 0 0 1 2.18.12 9.37 9.37 0 0 1 1.55.33v4.06a10 10 0 0 0-1-.24 6.37 6.37 0 0 0-1.14-.09q-1.64 0-1.64 1.55v.39h3.79v4.43h-3.67v11.8h-5.77zm12.25 0h-1.91V62.1h1.91v-.42a5.78 5.78 0 0 1 1.39-4.25 4.42 4.42 0 0 1 1.79-1.09 8.26 8.26 0 0 1 2.52-.33 16.4 16.4 0 0 1 2.18.12 9.37 9.37 0 0 1 1.55.33v4.06a9.91 9.91 0 0 0-1-.24 6.37 6.37 0 0 0-1.14-.09q-1.64 0-1.64 1.55v.39h3.79v4.43h-3.67v11.8h-5.76z" transform="translate(-5 -56)"/><circle class="cls-1" cx="166.56" cy="18.5" r="4.79"/></svg>